PathFileType	4	(X/Y/Z)	C:\Users\86182\Documents\cortex\Trimmed_M3_H13.trc
DataRate	CameraRate	NumFrames	NumMarkers	Units	OrigDataRate	OrigDataStartFrame	OrigNumFrames
100.00	100.00	       98	2	mm	100.00	541	       901
Frame#	Time	gripper			box			
		X1	Y1	Z1	X2	Y2	Z2	

541	5.400	267.76331	173.10872	292.25415	267.55005	172.04642	151.88670	
542	5.410	267.76236	173.11057	292.25085	267.54916	172.04807	151.88658	
543	5.420	267.76151	173.11183	292.24792	267.54825	172.04974	151.88646	
544	5.430	267.76102	173.11240	292.24582	267.54755	172.05109	151.88637	
545	5.440	267.76105	173.11220	292.24484	267.54712	172.05183	151.88632	
546	5.450	267.76157	173.11115	292.24506	267.54706	172.05196	151.88631	
547	5.460	267.76239	173.10938	292.24625	267.54733	172.05148	151.88634	
548	5.470	267.76331	173.10730	292.24820	267.54782	172.05055	151.88640	
549	5.480	267.76422	173.10541	292.25061	267.54840	172.04947	151.88646	
550	5.490	267.76508	173.10391	292.25311	267.54886	172.04861	151.88652	
551	5.500	267.76581	173.10292	292.25510	267.54910	172.04814	151.88655	
552	5.510	267.76630	173.10240	292.25598	267.54919	172.04802	151.88655	
553	5.520	267.76633	173.10239	292.25537	267.54919	172.04799	151.88655	
554	5.530	267.76566	173.10297	292.25308	267.54932	172.04779	151.88658	
555	5.540	267.76404	173.10420	292.24945	267.54959	172.04727	151.88663	
556	5.550	267.76141	173.10602	292.24506	267.54999	172.04654	151.88669	
557	5.560	267.75824	173.10809	292.24075	267.55038	172.04576	151.88673	
558	5.570	267.75522	173.10989	292.23734	267.55075	172.04509	151.88678	
559	5.580	267.75314	173.11102	292.23560	267.55103	172.04460	151.88683	
560	5.590	267.75256	173.11131	292.23611	267.55121	172.04427	151.88684	
561	5.600	267.75375	173.11078	292.23920	267.55130	172.04408	151.88686	
562	5.610	267.75644	173.10957	292.24454	267.55136	172.04399	151.88686	
563	5.620	267.75989	173.10800	292.25134	267.55136	172.04398	151.88687	
564	5.630	267.76324	173.10637	292.25830	267.55136	172.04399	151.88687	
565	5.640	267.76587	173.10487	292.26407	267.55133	172.04402	151.88686	
566	5.650	267.76755	173.10370	292.26776	267.55130	172.04407	151.88686	
567	5.660	267.76834	173.10298	292.26898	267.55130	172.04410	151.88684	
568	5.670	267.76843	173.10280	292.26788	267.55127	172.04413	151.88684	
569	5.680	267.76825	173.10309	292.26483	267.55127	172.04414	151.88684	
570	5.690	267.76819	173.10370	292.26068	267.55127	172.04414	151.88684	
571	5.700	267.76874	173.10445	292.25653	267.55127	172.04414	151.88684	
572	5.710	267.77036	173.10519	292.25348	267.55127	172.04414	151.88684	
573	5.720	267.77338	173.10587	292.25253	267.55127	172.04413	151.88684	
574	5.730	267.77783	173.10640	292.25412	267.55127	172.04411	151.88684	
575	5.740	267.78320	173.10677	292.25800	267.55127	172.04410	151.88683	
576	5.750	267.78860	173.10689	292.26337	267.55127	172.04408	151.88683	
577	5.760	267.79309	173.10674	292.26932	267.55127	172.04407	151.88681	
578	5.770	267.79605	173.10628	292.27481	267.55127	172.04407	151.88681	
579	5.780	267.79727	173.10559	292.27905	267.55127	172.04408	151.88683	
580	5.790	267.79691	173.10481	292.28143	267.55127	172.04416	151.88686	
581	5.800	267.79538	173.10405	292.28149	267.55127	172.04428	151.88693	
582	5.810	267.79315	173.10350	292.27951	267.55124	172.04446	151.88705	
583	5.820	267.79099	173.10327	292.27625	267.55121	172.04474	151.88724	
584	5.830	267.78949	173.10344	292.27277	267.55121	172.04509	151.88745	
585	5.840	267.78906	173.10402	292.27008	267.55115	172.04546	151.88770	
586	5.850	267.78983	173.10493	292.26880	267.55115	172.04575	151.88788	
587	5.860	267.79172	173.10594	292.26913	267.55112	172.04584	151.88794	
588	5.870	267.79449	173.10681	292.27103	267.55112	172.04568	151.88782	
589	5.880	267.79761	173.10750	292.27399	267.55112	172.04538	151.88757	
590	5.890	267.80045	173.10815	292.27753	267.55109	172.04509	151.88728	
591	5.900	267.80255	173.10880	292.28101	267.55096	172.04497	151.88701	
592	5.910	267.80380	173.10934	292.28412	267.55078	172.04509	151.88681	
593	5.920	267.80438	173.10970	292.28693	267.55051	172.04553	151.88672	
594	5.930	267.80450	173.10983	292.28958	267.55017	172.04625	151.88676	
595	5.940	267.80435	173.10968	292.29199	267.54990	172.04715	151.88699	
596	5.950	267.80411	173.10931	292.29413	267.54971	172.04808	151.88744	
597	5.960	267.80374	173.10889	292.29565	267.54968	172.04895	151.88808	
598	5.970	267.80301	173.10866	292.29633	267.54977	172.04977	151.88887	
599	5.980	267.80200	173.10878	292.29587	267.54993	172.05054	151.88968	
600	5.990	267.80078	173.10909	292.29413	267.55005	172.05103	151.89026	
601	6.000	267.79956	173.10933	292.29099	267.55017	172.05093	151.89040	
602	6.010	267.79843	173.10936	292.28680	267.55029	172.05020	151.89001	
603	6.020	267.79739	173.10922	292.28229	267.55038	172.04910	151.88931	
604	6.030	267.79645	173.10910	292.27838	267.55045	172.04800	151.88853	
605	6.040	267.79572	173.10905	292.27606	267.55045	172.04710	151.88786	
606	6.050	267.79553	173.10905	292.27594	267.55051	172.04639	151.88737	
607	6.060	267.79605	173.10892	292.27802	267.55060	172.04581	151.88708	
608	6.070	267.79721	173.10847	292.28180	267.55072	172.04539	151.88698	
609	6.080	267.79907	173.10779	292.28668	267.55087	172.04514	151.88701	
610	6.090	267.80167	173.10698	292.29205	267.55099	172.04503	151.88712	
611	6.100	267.80481	173.10619	292.29749	267.55109	172.04498	151.88721	
612	6.110	267.80804	173.10558	292.30249	267.55115	172.04494	151.88728	
613	6.120	267.81100	173.10533	292.30682	267.55118	172.04486	151.88730	
614	6.130	267.81342	173.10558	292.30997	267.55121	172.04474	151.88724	
615	6.140	267.81512	173.10623	292.31134	267.55124	172.04459	151.88716	
616	6.150	267.81613	173.10709	292.31073	267.55127	172.04445	151.88708	
617	6.160	267.81665	173.10794	292.30844	267.55124	172.04443	151.88707	
618	6.170	267.81696	173.10864	292.30511	267.55124	172.04462	151.88718	
619	6.180	267.81711	173.10915	292.30145	267.55118	172.04506	151.88742	
620	6.190	267.81683	173.10930	292.29791	267.55109	172.04579	151.88785	
621	6.200	267.81586	173.10915	292.29523	267.55096	172.04680	151.88844	
622	6.210	267.81424	173.10884	292.29391	267.55081	172.04800	151.88916	
623	6.220	267.81235	173.10864	292.29446	267.55069	172.04930	151.88992	
624	6.230	267.81073	173.10872	292.29688	267.55054	172.05042	151.89058	
625	6.240	267.80978	173.10910	292.30054	267.55048	172.05093	151.89087	
626	6.250	267.80951	173.10962	292.30460	267.55054	172.05063	151.89069	
627	6.260	267.80966	173.11012	292.30823	267.55063	172.04971	151.89015	
628	6.270	267.80991	173.11050	292.31088	267.55075	172.04857	151.88947	
629	6.280	267.81009	173.11064	292.31213	267.55090	172.04742	151.88879	
630	6.290	267.81027	173.11046	292.31171	267.55103	172.04643	151.88820	
631	6.300	267.81085	173.10995	292.30975	267.55109	172.04564	151.88774	
632	6.310	267.81195	173.10922	292.30698	267.55115	172.04515	151.88745	
633	6.320	267.81354	173.10837	292.30402	267.55118	172.04495	151.88733	
634	6.330	267.81522	173.10754	292.30157	267.55118	172.04500	151.88736	
635	6.340	267.81671	173.10701	292.30020	267.55115	172.04518	151.88747	
636	6.350	267.81775	173.10689	292.30005	267.55112	172.04538	151.88759	
637	6.360	267.81836	173.10713	292.30087	267.55112	172.04552	151.88766	
638	6.370	267.81870	173.10756	292.30228	267.55109	172.04559	151.88771	
